# xmcd
#
# Track frame offsets: 
#        150
#        20263
#        40138
#        65090
#        87460
#        108075
#        127055
#        145843
#        158085
#        177073
#        193755
#        214870
#
# Disc length: 3089 seconds
#
# Revision: 6
# Processed by: cddbd v1.5.2PL0 Copyright (c) Steve Scherf et al.
# Submitted via: ExactAudioCopyFreeDBPlugin 1.0
#
DISCID=a60c0f0c
DTITLE=木村カエラ - Kaela
DYEAR=2004
DGENRE=J-ROCK
TTITLE0=Untie(album take)
TTITLE1=You Know You Love Me?
TTITLE2=あの頃
TTITLE3=Happiness!!!
TTITLE4=Inventor
TTITLE5=D.T.S.
TTITLE6=Level 42(album take)
TTITLE7=誰
TTITLE8=Because
TTITLE9=Weak
TTITLE10=Whatever Are You Looking For?(album take)
TTITLE11=Sola
EXTD=YEAR: 2004
EXTT0=
EXTT1=
EXTT2=
EXTT3=
EXTT4=
EXTT5=
EXTT6=
EXTT7=
EXTT8=
EXTT9=
EXTT10=
EXTT11=
PLAYORDER=
